<svg xmlns="http://www.w3.org/2000/svg" viewBox="0 0 200 46"><title>balfour-beatty</title><path fill="#696b6a" fill-rule="evenodd" d="M151.33 21.67h1.34l.66.66V27l-.33.67-1 .66h-1.67l-.66-.66-.67-2 1-2v-1Zm-120.66 0L31 22v5.33l-1.33 1h-1.34L27 26.67v-2L28.67 22l.66-.33Zm87-2.34H120l1.33 1.34.67 2-.33 3.33-2.34 2h-1l-1-1v-5l-.33-.33V20Zm-106.34 0H13l1 .67 1 1.33V26l-2.33 2h-1l-1-1v-6.67Zm50.34-4.66h1l1 1.33v1.33l.33.34v7.66l-.33.34v1.66l-1.34 1.34h-.66l-1-1v-1L60 25.33V18l.67-1.33v-1Zm73.66-.34h1l.67.67v2l1 2-.67 1.33h-3l-.66-1L134 16Zm59-2H191l-1 1.34V17l-.33.33v1l-.67 1V22l-.67 1.67-1-.34v-.66l-.66-1-.67-5.34-.67-1.33v-2l-.66-.67H181l-.33.34v1l.66 1 .67 2v1l.67 1 .66 2.66.67 1v1.34l1 2 .67 3.33.66 1v2l-.66 1.67V35l-1 2-.67.67-1 .33-1-.33-1 .33-.33 1.33.33.67 1.67.67 3-.34 1.33-.66 1.67-2V37l1-1.67v-1l.66-1.33.34-3 .66-1v-2.67L192 25v-1.67l.67-1.33v-2.33l.66-1v-1l.34-.34v-2l1-2Zm-46.66.67-1.34 1.33-.66 1.34v1h3l.33.33 1-.67V15l.67-.67H152l1.33 1.67v2.67l-1 1h-1l-4 1.66-1.66 1.67-1 2.67V27l.33.33.33 2 1 1.34h.67l2 1h.67l1.66-1h5l1 .33.67-.67-.33-1v-13l-1-2.33-1-1-1.67-.67h-4.67Zm-14.34-.67L131 14l-1 1.67v1l-.67 1v1.66l-.33.34.33 5.66 1.34 3.67 1.66 1.67 3 1h1l2-1h1L141 29l1-2-.67-.67h-3L136.67 29H135l-.67-.67-.33-2-.33-.33v-2.67l1.33-1h5.67l.33.34 1.33-.67v-1l-.33-.33V19l-.33-.33-.34-2.67-1-2-1-1-1.66-.67Zm-62 .34-.33.66v3l.67 1.34v11.66L72 30l2.33 1.67h1l3-2 1 .33.67.67h4l.33-.34V13l-.66-.67h-3.34l-.66.34V26l-1 1.33-1.34.34-1-1v-1l-.33-.34V12.67l-.33-.34H72Zm-11.66-.34-2 1.34-1.67 3-.33 4-.34.33.34 4.33.33.34v1l1 1.66V29l1.67 1.67 3 1H63l1.67-1h.66L67.67 28l.66-2v-1.33l.34-.34v-5l-.34-.33v-1.67L66.67 14 65 12.67l-1-.34ZM25.33 13 24 14.33v1l-1 1 .33.34h4l.34-.34v-1l1-1h1l1 1L31 19l-.67.67H29l-1 .66-2.33.67L24 22.33l-1 1.34v1.66l-.67 1.34.67 1.66v1l1.33 1.34 2.67 1 1.33-.34 1-.66h5l1 .33.34-.33V30L35 29l.33-.67V17.67l-.33-.34v-1.66L34.33 14l-1-1-1.33-.67h-5.33Zm74.67-.67-.67-.33h-2l-2 1-1 1h-1l-.66-.67-.34-1h-4l-.33.34v18l.33.33h1l.34-.33 2.66.33.34-.33V18.33l2.66-2.66 1.34-.67 3 .33ZM118.33 9h1l1 .67 1 1.66v2.34l-.66 1.33-1.34 1h-1l-1-1v-5Zm-107-.33H13l.67.33L15 10.67v3.66L13.67 16h-1l-.34.33-1-.33-.66-.67v-6Zm150.34-.34v3L160 13v1.33l1.67 2v10.34l.33.33v1.67l1 1.66 3 1.34h1l2-.67.67-.67-.34-1.66-.33-.34h-1.33l-1-1-.34-1V15.67L167 15h3.67l.66.67v10.66L172 28v1.33l.67 1 3 1.34H177l2-1v-1.34l-.67-1H177l-1.33-2V16l.66-1h1.34l.66-.33V13l-.66-.67h-1.34l-.66-1v-3l-.34-.33H172l-.67.33v3.34l-.66.66H167l-1-1 .33-2.66-1-.67h-3Zm-49-2.66-.67.66v24.34l.33.33h1.34l.33-.33h8.67l2.66-1.67 1.34-2v-5.33l-1.34-2-1-.67-1.66-.33-.67-1 .67-1 1.66-.67 1.34-1.33v-1l.66-1.67v-1.33l-.66-2L124 7l-3-1h-8Zm-106 0-1 .66V30l.66 1 1-.33H16l2-1 1.33-1.34 1-3v-2.66l-1-2.34-1-1-2.33-.66-.67-1 1-1.34h1l2-2.33v-1l.34-.33V10l-.34-1L18 7.33 15 6H7ZM54 5h-4.33l-1.34.67-1 1-.66 1.66v3l-1 1.34v2l1 1.33v13.67l-.34.33.34.67H51l.33-.34V15.67L53 14.33l-.33-1.66-1.34-1v-3L52 8l1.67-.67v-.66l.66-1ZM39 5l-.33.33v25.34l.66.33 1-.33 2.34.33.66-.67-.33-1v-22l.33-.33V5.67L42.67 5Z"/></svg>