<svg xmlns="http://www.w3.org/2000/svg" viewBox="0 0 198 62"><title>wates</title><path fill="#696b6a" fill-rule="evenodd" d="m66 42 .67.67v8L65.33 52l-3.66 1.33H59l-1.67-.66-2-2-.66-1.34V47l1-2L57 43.67l2-1 3-.34.33-.33Zm38.67-7.33.66-.67.34-1 2-2 2.66-1 2.67.33 1.33.67 1.34 1.33 1.33 3.34v3l-.67.66H105l-1-1ZM136.33 28 132 29.67l-2.33 2-.67 1-.33 2.33-.34.33.67 3 1.67 2 2.66 2 1.34.34 1.66 1 3.67 1 3 1.66 1.67 2v1l.33.34-.33.33v1L143 53l-1.67 1h-1l-.33.33h-3l-.33-.33h-1.34l-2.66-1.33-1.34-1.34V49l-1.66-.33-.34.33h-1v5.33l3 1.34H133l.33.33H135l.33.33H141l.33-.33 2.67-.33 2-1 2-1.67 1.67-3v-3.67l-1-1.66-3.34-2.67h-.66l-1.34-1h-1l-1-.67-1.66-.33-4.34-2-2-2v-1l-.33-.33.33-1.67 1.34-1.67 2.66-1.33h2.34l4.33 1.67.67.66v2l.66.67H147l.67-.67v-1l-.34-.33.34-.33-.34-1 .34-.34v-1l-.67-1-.67-.33H145l-1.33-.67H142l-.33-.33Zm-31 1.33-2 1.34-2 2-2.33 4V38l-.67 1.67V44l.34.33L99 47l1 1.67v.66l2 2.67 2.67 2.33 2.66 1.34h1l1.67.66h6.33l.34-.33 3-.33 2.66-1.34V52l-.33-.33-3.67 1.33h-1.66l-.34.33h-4.66l-3-1-1.34-1-1.66-2-1.34-2.33v-1l-.66-1.67V42l.66-.67H122l.33-.33v-2.67L122 38v-1.67l-1-3-2.33-3-4-2h-1l-.34-.33h-3.66l-.34.33H108l-1 .67Zm-53 .67-.66.67v4l.66.33H54l.67-1v-1.33L56 31.33l1.33-.66 2-.34.34-.33H62l2 .67 1.33 1 1.34 2.66v5l-1 .67h-5.34l-.33.33h-1.67l-.33.34-3.33.66L52 43l-1.33 1.33-1.34 3.34v2l.34.33.33 2 .67 1 2 2 3 1.33H60l.33-.33 2-.33 3.34-2L67 52.33h.67l.66.67.67 1.67L70.67 56l1 .33h2.66l1.67-.66.33-.67-.66-1.33h-1.34l-.66-.34L72.33 52l-.66-1.67V34l-1-2.67L68 29l-3-1h-5.67l-.33.33h-1.33l-.34.34L55 29l-2 1ZM86 22.67l-.33.33-3.34.67-.33.66V28l-.67.67h-3l-.66.66V30l.66 1h3l.67.67v17.66l1.33 4 1 1.34L87 56h1l.33.33H93l1-.33.67-.67v-1.66h-1.34L93 54h-2.67L88 52.33l-1-2.66V32l1-1h6.33l.34-.33V29l-.67-.33h-6.33L87 28v-5ZM5.33 22v1l.67.67h1l1 1 .33 1v1L9 28v1.33l2 6v1.34l.67 1.33v1l.33.33v1l.33.34v1l.34.33v1l.33.33v1l.33.34v1l1 3V50l.67 1.33v1l.33.34v1l.67 2 .33.33H18l1-1.33.33-2 2.34-6.34v-1l.66-1 2.34-7 1-4.66 1-.67 1 1 .33 1v1l3 8.33v1l1.33 3.34v1L33 50v1l1 2.33.33 2L35 56h2l.67-1 .33-2 .67-1.33v-1l1-2.34v-1l1-2v-1l1-2.33v-1l1-2v-1l.66-1.33v-1l1-2.34v-1L45 31v-1l.67-1.33v-1l1-3 1-1H49l.67-.67-.34-1.33h-9l-.33.66V23l.67.67h3l.66 1L43 28v1l-1 2.33v1l-1 2v1l-.67 1-.33 2.34-.67 1V41l-1.66 4.67H37l-.67-1-.66-2v-1l-1-1.67v-1l-1-2.33v-1l-1.34-3.34v-1l-1-2.33v-1l-1-2.33v-1l-.66-1v-1.34l-.67-.66-1-.34-.33.34H25l-.33-.34L24 22l1.33 3.33v2.34L25 28l-.33 2-.67 1v1l-1 2v1l-1 2v1l-1.67 4.33-.33 2.34-.67.66H19L18 44l-.33-2.67L17 40l-.67-3.67-.66-1V34l-1-2.33v-1.34L14 29v-1l-1-3v-.67l.67-.66h2.66l.34-.34V22l-.67-.67-.67.34H7l-.33-.34Zm120.34-8.67 1.66 3 4 4h1.34l3-2.33 3.66-1.67 1.34-1h1.66l5 3.34 5.34 4.66h1l4.66-3.66 1-.34 7.34-4.66 2-1h.66l2.34-1.34 11-3.66 7.66-1-2-.67h-2.66l-.34-.33h-1.66l-.34-.34h-3L180 6h-3l-.33-.33h-3l-.34-.34h-4.66l-.34-.33H152l-.33.33h-4.34l-.33.34-5.33.33-.34.33h-1.66l-.34.34-4.66.66-5 1.67-3.67 2.67Z"/></svg>