<svg xmlns="http://www.w3.org/2000/svg" viewBox="0 0 10650 4200" role="img" aria-labelledby="gwg-logo-title gwg-logo-desc">
  <title id="gwg-logo-title">Green Ways Group</title>
  <desc id="gwg-logo-desc">Green Ways Group logo for dark backgrounds, rebuilt from the canonical GWG PSD master.</desc>
  <path fill="#ffffff" fill-rule="evenodd" d="M1988,22 L1896,26 L1798,35 L1711,47 L1605,67 L1514,89 L1425,115 L1311,155 L1224,191 L1157,222 L1059,273 L979,320 L889,379 L797,447 L717,513 L653,571 L578,646 L512,719 L452,792 L394,870 L339,952 L289,1035 L252,1103 L204,1202 L161,1305 L140,1362 L103,1479 L75,1590 L58,1676 L42,1784 L33,1877 L28,1982 L28,2071 L32,2161 L40,2251 L52,2340 L71,2443 L95,2543 L120,2629 L153,2725 L193,2824 L227,2898 L284,3007 L329,3083 L392,3178 L456,3264 L512,3332 L576,3403 L653,3480 L718,3539 L807,3612 L886,3670 L969,3725 L1034,3764 L1109,3805 L1208,3853 L1311,3896 L1422,3935 L1503,3959 L1583,3979 L1682,3999 L1767,4012 L1870,4023 L1988,4029 L2075,4029 L2167,4025 L2274,4015 L2376,4000 L2458,3984 L2549,3962 L2638,3936 L2752,3896 L2839,3860 L2946,3809 L3020,3769 L3100,3721 L3184,3665 L3275,3597 L3346,3538 L3411,3479 L3485,3405 L3545,3339 L3611,3259 L3669,3181 L3724,3099 L3763,3035 L3811,2948 L3859,2849 L3902,2746 L3924,2686 L3960,2572 L3988,2461 L4005,2375 L4021,2267 L4030,2174 L4035,2069 L4035,1980 L4031,1890 L4023,1800 L4011,1711 L3992,1608 L3968,1508 L3943,1422 L3910,1326 L3870,1227 L3836,1153 L3779,1044 L3734,968 L3671,873 L3607,787 L3551,719 L3486,647 L3410,571 L3345,512 L3265,446 L3187,388 L3105,333 L3029,287 L2952,245 L2855,198 L2752,155 L2641,116 L2560,92 L2480,72 L2381,52 L2264,35 L2179,27 L2075,22 Z M1989,75 L2073,75 L2190,81 L2285,91 L2376,105 L2465,123 L2556,146 L2620,165 L2734,205 L2841,250 L2933,295 L3011,338 L3072,375 L3150,427 L3222,480 L3311,553 L3380,616 L3440,676 L3510,753 L3580,839 L3632,910 L3685,990 L3736,1076 L3791,1182 L3819,1243 L3852,1323 L3884,1412 L3916,1519 L3939,1614 L3959,1722 L3969,1795 L3977,1878 L3982,1981 L3981,2101 L3976,2184 L3966,2279 L3952,2370 L3934,2459 L3911,2550 L3872,2674 L3847,2741 L3807,2835 L3761,2929 L3719,3005 L3682,3066 L3630,3144 L3570,3225 L3504,3305 L3441,3374 L3381,3434 L3304,3504 L3218,3574 L3147,3626 L3067,3679 L2988,3726 L2929,3758 L2814,3813 L2721,3851 L2617,3887 L2538,3910 L2452,3931 L2371,3947 L2270,3962 L2179,3971 L2074,3976 L1990,3976 L1873,3970 L1778,3960 L1687,3946 L1598,3928 L1507,3905 L1443,3886 L1329,3846 L1222,3801 L1130,3756 L1052,3713 L991,3676 L913,3624 L832,3564 L752,3498 L683,3435 L623,3375 L553,3298 L483,3212 L431,3141 L378,3061 L327,2975 L272,2869 L244,2808 L211,2728 L179,2639 L147,2532 L124,2437 L104,2329 L94,2256 L86,2173 L81,2070 L82,1950 L87,1867 L97,1772 L111,1681 L129,1592 L152,1501 L191,1377 L216,1310 L256,1216 L302,1122 L344,1046 L381,985 L433,907 L493,826 L559,746 L622,677 L682,617 L759,547 L845,477 L916,425 L996,372 L1075,325 L1134,293 L1249,238 L1350,197 L1443,165 L1525,141 L1611,120 L1692,104 L1793,89 L1884,80 Z"/>
  <path fill="#ffffff" fill-rule="evenodd" d="M3917,2554 L3349,2252 L3053,2333 L2776,2401 L2620,2434 L2421,2469 L2242,2491 L2171,2497 L2050,2503 L1895,2501 L1811,2495 L1740,2487 L1646,2470 L1564,2448 L1472,2414 L1396,2375 L1335,2331 L1287,2284 L1253,2238 L1227,2185 L1215,2147 L1207,2103 L1205,2059 L1208,2018 L1216,1972 L1228,1929 L1244,1887 L1263,1846 L1287,1802 L1316,1757 L1376,1679 L1459,1591 L1513,1541 L1566,1496 L1697,1402 L1844,1311 L2019,1223 L2192,1149 L2284,1115 L2407,1074 L2599,1021 L2676,1003 L2798,979 L2905,962 L2980,953 L3224,681 L3212,678 L3147,675 L3034,676 L2903,684 L2773,698 L2674,713 L2526,740 L2387,771 L2239,809 L2049,866 L1919,910 L1772,965 L1622,1027 L1458,1102 L1369,1147 L1267,1202 L1154,1267 L1050,1332 L957,1395 L856,1468 L760,1544 L673,1619 L588,1699 L523,1766 L438,1863 L388,1927 L326,2017 L281,2093 L244,2167 L212,2247 L194,2307 L178,2384 L172,2446 L174,2536 L187,2610 L211,2683 L243,2749 L278,2803 L332,2868 L373,2908 L413,2942 L480,2990 L553,3033 L643,3077 L739,3114 L857,3150 L984,3179 L994,3179 L1022,3186 L1093,3197 L1217,3211 L1359,3220 L1469,3222 L1642,3217 L1778,3207 L1865,3198 L2036,3174 L2172,3150 L2300,3123 L2459,3084 L2685,3019 L2817,2976 L2972,2922 L3290,2801 L3638,2661 Z"/>
  <path fill="#ffffff" fill-rule="evenodd" d="M3661,1951 L3651,2027 L3644,2119 L3643,2242 L3646,2298 L3654,2375 L3670,2466 L3689,2541 L3711,2608 L3736,2670 L3772,2743 L3804,2797 L3856,2870 L3896,2917 L3951,2972 L4006,3018 L4061,3057 L4123,3094 L4196,3130 L4274,3161 L4348,3184 L4430,3203 L4504,3215 L4581,3223 L4664,3227 L4773,3226 L4845,3222 L4932,3213 L5032,3197 L5116,3179 L5201,3156 L5288,3128 L5377,3094 L5480,3048 L5482,3045 L5731,1868 L4737,1869 L4648,2286 L5120,2287 L5021,2758 L4997,2766 L4917,2784 L4837,2793 L4737,2794 L4678,2789 L4607,2776 L4571,2766 L4534,2753 L4497,2737 L4468,2722 L4411,2685 L4376,2656 L4343,2623 L4314,2588 L4277,2531 L4247,2469 L4232,2429 L4221,2393 L4205,2320 L4199,2277 L4195,2230 L4194,2123 L4201,2028 L4212,1954 L4233,1863 L4250,1809 L4269,1759 L4307,1679 L4327,1644 L4355,1601 L4406,1536 L4469,1472 L4507,1440 L4542,1414 L4580,1389 L4618,1367 L4668,1342 L4728,1317 L4782,1299 L4849,1282 L4924,1269 L4994,1262 L5035,1260 L5134,1261 L5205,1267 L5278,1278 L5346,1292 L5438,1317 L5496,1337 L5556,1362 L5627,1398 L5684,1433 L5756,1103 L5758,1115 L5863,3186 L6462,3185 L7200,1677 L7245,1566 L7294,1425 L7300,1424 L7301,1428 L7293,1469 L7279,1581 L7275,1632 L7275,1680 L7374,3186 L7933,3185 L8489,2022 L8490,2026 L8484,2084 L8481,2144 L8481,2242 L8485,2311 L8492,2375 L8501,2431 L8513,2488 L8534,2564 L8555,2624 L8574,2670 L8603,2730 L8632,2781 L8662,2827 L8702,2880 L8748,2932 L8789,2972 L8835,3011 L8884,3047 L8918,3069 L8974,3101 L9025,3126 L9090,3153 L9145,3172 L9205,3189 L9268,3203 L9342,3215 L9406,3222 L9470,3226 L9574,3227 L9635,3225 L9707,3220 L9770,3213 L9848,3201 L9910,3189 L9974,3174 L10059,3150 L10126,3128 L10185,3106 L10262,3074 L10319,3047 L10569,1868 L9576,1868 L9486,2286 L9957,2286 L9958,2288 L9859,2758 L9799,2775 L9721,2789 L9653,2794 L9558,2793 L9483,2784 L9445,2776 L9409,2766 L9348,2743 L9319,2729 L9284,2709 L9249,2685 L9223,2664 L9173,2614 L9152,2588 L9128,2553 L9110,2522 L9091,2483 L9076,2446 L9063,2407 L9052,2365 L9043,2320 L9037,2277 L9033,2230 L9032,2123 L9039,2028 L9050,1954 L9071,1863 L9099,1779 L9136,1696 L9159,1654 L9193,1601 L9219,1566 L9252,1527 L9293,1485 L9323,1458 L9366,1424 L9410,1394 L9447,1372 L9489,1350 L9538,1328 L9577,1313 L9620,1299 L9669,1286 L9717,1276 L9762,1269 L9819,1263 L9873,1260 L9948,1260 L9988,1262 L10043,1267 L10093,1274 L10157,1286 L10224,1302 L10276,1317 L10326,1334 L10376,1354 L10439,1384 L10479,1406 L10522,1433 L10626,956 L10575,936 L10501,911 L10412,885 L10338,867 L10275,854 L10136,833 L10024,824 L9917,822 L9786,827 L9660,840 L9550,859 L9437,887 L9329,922 L9233,961 L9137,1009 L9051,1061 L8969,1120 L8923,1158 L8889,1189 L8888,1187 L9044,861 L8497,861 L7855,2403 L7801,2547 L7766,2655 L7761,2655 L7760,2650 L7766,2607 L7771,2547 L7774,2431 L7696,861 L7143,861 L7141,863 L6393,2403 L6341,2524 L6320,2581 L6295,2658 L6287,2658 L6286,2654 L6304,2539 L6312,2458 L6295,861 L5745,861 L5749,938 L5746,940 L5663,911 L5574,885 L5477,862 L5372,843 L5270,830 L5186,824 L5114,822 L5001,824 L4934,828 L4853,836 L4795,844 L4712,859 L4651,873 L4572,895 L4505,917 L4432,945 L4367,974 L4283,1018 L4213,1061 L4140,1113 L4077,1165 L4016,1223 L3962,1282 L3915,1340 L3874,1397 L3830,1467 L3806,1510 L3776,1570 L3753,1622 L3726,1692 L3699,1777 L3676,1870 Z"/>
  <path fill="#ffffff" fill-rule="evenodd" d="M9591,3517 L9536,3774 L9526,3833 L9525,3868 L9527,3885 L9532,3906 L9541,3927 L9553,3944 L9565,3955 L9584,3966 L9598,3971 L9621,3975 L9652,3975 L9681,3969 L9713,3955 L9736,3940 L9752,3927 L9788,3889 L9818,3847 L9818,3856 L9800,3964 L9854,3964 L9858,3926 L9868,3868 L9943,3517 L9888,3517 L9841,3740 L9826,3780 L9798,3827 L9766,3866 L9731,3897 L9711,3910 L9693,3919 L9679,3924 L9657,3928 L9637,3927 L9624,3924 L9607,3915 L9593,3899 L9588,3889 L9583,3871 L9581,3845 L9586,3806 L9646,3517 Z M7784,3517 L7721,3518 L7506,3879 L7493,3904 L7491,3903 L7487,3859 L7430,3517 L7374,3517 L7454,3960 L7396,4052 L7374,4082 L7346,4108 L7328,4118 L7316,4122 L7286,4125 L7268,4122 L7257,4117 L7246,4168 L7270,4174 L7302,4174 L7338,4166 L7356,4158 L7379,4143 L7414,4108 L7432,4085 L7459,4045 Z M10349,3522 L10321,3510 L10299,3506 L10261,3507 L10247,3510 L10223,3519 L10190,3540 L10161,3568 L10139,3596 L10113,3637 L10112,3634 L10124,3555 L10127,3517 L10071,3517 L10067,3580 L10058,3651 L9947,4173 L10002,4173 L10048,3959 L10082,3969 L10121,3975 L10173,3974 L10201,3969 L10222,3963 L10264,3944 L10303,3917 L10334,3886 L10360,3850 L10382,3808 L10397,3766 L10408,3710 L10410,3656 L10404,3607 L10392,3571 L10383,3555 L10373,3542 Z M10320,3570 L10336,3589 L10347,3615 L10353,3649 L10353,3702 L10346,3747 L10334,3786 L10317,3822 L10297,3852 L10274,3877 L10246,3899 L10218,3914 L10187,3924 L10156,3928 L10123,3927 L10087,3921 L10059,3911 L10057,3909 L10083,3785 L10098,3732 L10121,3680 L10139,3649 L10156,3625 L10174,3604 L10194,3585 L10216,3569 L10239,3558 L10263,3553 L10283,3554 L10302,3559 Z M9351,3518 L9334,3512 L9309,3507 L9263,3506 L9224,3513 L9196,3523 L9168,3538 L9136,3562 L9107,3593 L9082,3631 L9062,3676 L9048,3727 L9042,3775 L9043,3832 L9052,3874 L9065,3903 L9086,3931 L9115,3954 L9147,3968 L9184,3975 L9231,3974 L9254,3970 L9280,3962 L9313,3946 L9346,3922 L9378,3888 L9401,3853 L9420,3812 L9430,3781 L9437,3750 L9442,3709 L9442,3657 L9440,3640 L9431,3604 L9420,3580 L9411,3566 L9387,3540 L9372,3529 Z M9322,3561 L9344,3574 L9364,3595 L9378,3623 L9384,3647 L9386,3663 L9386,3709 L9384,3729 L9377,3766 L9362,3810 L9346,3841 L9324,3871 L9301,3893 L9278,3909 L9257,3919 L9225,3927 L9190,3927 L9161,3919 L9140,3906 L9126,3892 L9118,3881 L9108,3861 L9099,3825 L9098,3774 L9101,3745 L9109,3707 L9122,3671 L9138,3641 L9159,3612 L9183,3588 L9209,3570 L9239,3558 L9271,3553 L9295,3554 Z M9042,3514 L9027,3509 L9010,3506 L8983,3506 L8960,3511 L8942,3519 L8922,3533 L8897,3559 L8879,3584 L8859,3619 L8857,3617 L8872,3517 L8818,3517 L8813,3562 L8804,3616 L8730,3964 L8785,3964 L8834,3736 L8855,3678 L8867,3654 L8885,3625 L8904,3601 L8920,3585 L8939,3571 L8958,3562 L8979,3558 L8996,3559 L9016,3565 L9033,3574 L9043,3518 Z M8060,3527 L8031,3516 L7985,3507 L7937,3506 L7921,3508 L7888,3517 L7871,3525 L7849,3540 L7827,3563 L7813,3587 L7804,3619 L7804,3658 L7813,3688 L7827,3710 L7850,3733 L7868,3747 L7924,3783 L7942,3798 L7952,3809 L7959,3820 L7965,3840 L7965,3863 L7963,3874 L7953,3895 L7938,3910 L7919,3920 L7888,3927 L7848,3927 L7818,3921 L7787,3910 L7756,3893 L7745,3946 L7747,3948 L7776,3961 L7813,3971 L7841,3975 L7892,3974 L7927,3967 L7960,3953 L7979,3940 L8000,3918 L8014,3892 L8021,3862 L8021,3831 L8014,3804 L8001,3781 L7982,3760 L7953,3737 L7904,3706 L7877,3683 L7870,3674 L7861,3653 L7859,3641 L7860,3618 L7869,3594 L7885,3575 L7908,3561 L7929,3555 L7960,3553 L7997,3558 L8024,3567 L8050,3581 L8061,3531 Z M7289,3522 L7232,3512 L7175,3506 L7128,3506 L7088,3512 L7052,3523 L7012,3543 L6979,3567 L6947,3600 L6924,3633 L6899,3684 L6888,3717 L6882,3742 L6876,3788 L6876,3835 L6884,3883 L6892,3905 L6901,3922 L6913,3938 L6924,3949 L6949,3965 L6962,3970 L6987,3975 L7025,3974 L7056,3965 L7084,3949 L7108,3928 L7139,3890 L7168,3844 L7169,3850 L7158,3919 L7155,3964 L7211,3964 L7215,3909 L7226,3831 L7290,3525 Z M7226,3562 L7227,3565 L7201,3692 L7191,3730 L7172,3779 L7156,3811 L7133,3848 L7115,3871 L7091,3895 L7068,3912 L7050,3921 L7029,3927 L7011,3928 L6991,3925 L6971,3916 L6954,3900 L6948,3891 L6938,3866 L6932,3829 L6932,3787 L6939,3737 L6950,3700 L6965,3666 L6985,3634 L6999,3617 L7030,3589 L7054,3574 L7086,3561 L7121,3554 L7153,3553 L7183,3555 Z M5981,3532 L5957,3516 L5926,3507 L5885,3506 L5848,3515 L5816,3531 L5783,3556 L5750,3591 L5720,3634 L5719,3628 L5731,3562 L5737,3517 L5684,3517 L5672,3596 L5661,3653 L5594,3964 L5649,3964 L5697,3738 L5708,3707 L5721,3681 L5734,3660 L5762,3624 L5784,3602 L5809,3582 L5844,3562 L5858,3557 L5880,3553 L5909,3556 L5918,3559 L5931,3567 L5944,3582 L5950,3595 L5954,3611 L5955,3647 L5950,3680 L5891,3963 L5946,3964 L6000,3711 L6012,3641 L6012,3607 L6007,3578 L5997,3553 Z M5484,3517 L5466,3511 L5446,3507 L5400,3506 L5378,3509 L5355,3515 L5320,3530 L5285,3553 L5253,3583 L5224,3622 L5204,3660 L5187,3709 L5179,3754 L5178,3812 L5183,3847 L5187,3863 L5197,3889 L5215,3918 L5239,3942 L5271,3961 L5291,3968 L5321,3974 L5382,3974 L5410,3969 L5437,3961 L5463,3950 L5477,3942 L5487,3888 L5457,3904 L5433,3914 L5407,3922 L5379,3927 L5352,3928 L5322,3924 L5301,3917 L5282,3906 L5260,3885 L5244,3857 L5239,3842 L5235,3821 L5234,3776 L5236,3771 L5291,3770 L5341,3766 L5384,3760 L5425,3751 L5456,3741 L5484,3728 L5509,3711 L5525,3695 L5538,3676 L5548,3650 L5551,3633 L5551,3602 L5549,3591 L5539,3564 L5526,3546 L5509,3531 Z M5487,3586 L5491,3594 L5495,3610 L5495,3632 L5493,3642 L5486,3659 L5478,3670 L5468,3680 L5454,3690 L5436,3699 L5410,3708 L5361,3718 L5293,3724 L5241,3724 L5253,3681 L5273,3640 L5300,3605 L5317,3589 L5341,3572 L5359,3563 L5382,3556 L5405,3553 L5430,3554 L5449,3558 L5467,3566 L5475,3572 Z M5057,3517 L5039,3511 L5019,3507 L4973,3506 L4951,3509 L4928,3515 L4893,3530 L4858,3553 L4826,3583 L4797,3622 L4777,3660 L4760,3709 L4752,3754 L4751,3812 L4756,3847 L4760,3863 L4770,3889 L4788,3918 L4812,3942 L4844,3961 L4864,3968 L4894,3974 L4955,3974 L4983,3969 L5010,3961 L5036,3950 L5050,3942 L5060,3888 L5030,3904 L5006,3914 L4980,3922 L4952,3927 L4925,3928 L4895,3924 L4874,3917 L4855,3906 L4833,3885 L4817,3857 L4812,3842 L4808,3821 L4807,3776 L4809,3771 L4864,3770 L4914,3766 L4957,3760 L4998,3751 L5029,3741 L5057,3728 L5082,3711 L5098,3695 L5111,3676 L5121,3650 L5124,3633 L5124,3602 L5122,3591 L5112,3564 L5099,3546 L5082,3531 Z M5060,3586 L5064,3594 L5068,3610 L5068,3632 L5066,3642 L5059,3659 L5051,3670 L5041,3680 L5027,3690 L5009,3699 L4983,3708 L4934,3718 L4866,3724 L4814,3724 L4826,3681 L4846,3640 L4873,3605 L4890,3589 L4914,3572 L4932,3563 L4955,3556 L4978,3553 L5003,3554 L5022,3558 L5040,3566 L5048,3572 Z M4751,3514 L4736,3509 L4719,3506 L4692,3506 L4669,3511 L4651,3519 L4631,3533 L4606,3559 L4588,3584 L4568,3619 L4566,3617 L4581,3517 L4527,3517 L4522,3562 L4513,3616 L4439,3964 L4494,3964 L4543,3736 L4564,3678 L4576,3654 L4594,3625 L4613,3601 L4629,3585 L4648,3571 L4667,3562 L4688,3558 L4705,3559 L4725,3565 L4742,3574 L4752,3518 Z M6204,3964 L6261,3964 L6504,3496 L6517,3467 L6525,3438 L6527,3436 L6529,3437 L6530,3504 L6569,3963 L6625,3964 L6939,3338 L6875,3338 L6644,3814 L6613,3884 L6611,3883 L6609,3828 L6572,3338 L6528,3339 L6266,3847 L6251,3884 L6249,3883 L6248,3826 L6212,3338 L6152,3338 Z M8689,3367 L8629,3344 L8589,3334 L8534,3327 L8481,3327 L8431,3333 L8400,3340 L8369,3350 L8345,3360 L8313,3377 L8271,3407 L8230,3449 L8206,3483 L8193,3506 L8178,3539 L8167,3571 L8160,3598 L8153,3640 L8150,3679 L8150,3714 L8157,3771 L8165,3801 L8178,3834 L8195,3865 L8216,3893 L8243,3919 L8279,3943 L8312,3958 L8346,3968 L8394,3975 L8456,3974 L8505,3966 L8554,3951 L8598,3931 L8658,3648 L8448,3648 L8437,3698 L8588,3698 L8589,3700 L8547,3898 L8520,3909 L8483,3918 L8452,3922 L8414,3923 L8369,3918 L8327,3905 L8307,3895 L8284,3879 L8265,3861 L8249,3841 L8240,3827 L8226,3797 L8218,3772 L8212,3741 L8209,3706 L8209,3678 L8214,3624 L8220,3594 L8229,3564 L8240,3537 L8260,3501 L8281,3473 L8305,3448 L8331,3427 L8353,3413 L8390,3396 L8428,3385 L8470,3379 L8510,3378 L8547,3381 L8588,3389 L8628,3402 L8678,3426 Z M4398,3367 L4338,3344 L4298,3334 L4243,3327 L4190,3327 L4140,3333 L4109,3340 L4078,3350 L4054,3360 L4022,3377 L3980,3407 L3939,3449 L3915,3483 L3902,3506 L3887,3539 L3876,3571 L3869,3598 L3862,3640 L3859,3679 L3859,3714 L3866,3771 L3874,3801 L3887,3834 L3904,3865 L3925,3893 L3952,3919 L3988,3943 L4021,3958 L4055,3968 L4103,3975 L4165,3974 L4214,3966 L4263,3951 L4307,3931 L4367,3648 L4157,3648 L4146,3698 L4297,3698 L4298,3700 L4256,3898 L4229,3909 L4192,3918 L4161,3922 L4123,3923 L4078,3918 L4036,3905 L4016,3895 L3993,3879 L3974,3861 L3958,3841 L3949,3827 L3935,3797 L3927,3772 L3921,3741 L3918,3706 L3918,3678 L3923,3624 L3929,3594 L3938,3564 L3949,3537 L3969,3501 L3990,3473 L4014,3448 L4040,3427 L4062,3413 L4099,3396 L4137,3385 L4179,3379 L4219,3378 L4256,3381 L4297,3389 L4337,3402 L4387,3426 Z"/>
  <path fill="#639c1a" fill-rule="evenodd" d="M3719,2631 L3529,2705 L3710,2636 Z M4201,2286 L4213,2357 L4234,2432 L4400,2368 L4202,2284 Z M2274,1712 L2624,1980 L2730,2058 L2789,2104 L2863,2165 L2939,2231 L3048,2332 L3051,2333 L3348,2251 L3660,2417 L3649,2341 L3642,2240 L3642,2146 L3647,2063 L3428,1983 L3230,1916 L3020,1851 L2835,1800 L2724,1773 L2640,1755 L2498,1730 L2377,1716 L2277,1710 Z"/>
  <path fill="#87c03e" fill-rule="evenodd" d="M4201,2284 L4197,2284 L4022,2211 L3856,2145 L3648,2068 L3643,2146 L3643,2240 L3648,2321 L3654,2374 L3661,2414 L3660,2417 L3348,2252 L3055,2333 L3049,2333 L3052,2334 L3115,2395 L3211,2492 L3335,2624 L3434,2735 L3441,2740 L3529,2706 L3536,2701 L3575,2686 L3581,2686 L3585,2682 L3634,2662 L3697,2639 L3714,2631 L3719,2630 L3720,2632 L3724,2629 L4232,2433 L4233,2430 L4224,2404 L4212,2357 L4203,2308 Z"/>
</svg>
